# xmcd
#
# Track frame offsets: 
#        150
#        12609
#        26147
#        37676
#        47931
#        64460
#        74621
#        88622
#        103453
#        116592
#        125867
#        137674
#        149425
#        160099
#        172269
#        184535
#        196545
#        204432
#        218812
#        227940
#
# Disc length: 3200 seconds
#
# Revision: 0
# Processed by: cddbd v1.5.2PL0 Copyright (c) Steve Scherf et al.
# Submitted via: ExactAudioCopyFreeDBPlugin 1.0
#
DISCID=350c7e14
DTITLE=Various Artist - Best of Country
DYEAR=2013
DGENRE=Country
TTITLE0=Faron Young - It's Four In The Morning
TTITLE1=Willie Nelson - The Last Letter
TTITLE2=Kenny Rogers - Me And Bobby Mc Gee
TTITLE3=Dave Duddley - Six Days On The Road
TTITLE4=Tanya Tucker - Little Things
TTITLE5=Ferlin Husky - Gone
TTITLE6=Tex Ritter - Fool's Paradise
TTITLE7=Juice Newton - Queen Of Hearts
TTITLE8=Lynn Anderson - Rose Garden
TTITLE9=Doc Watson - Corn Likker
TTITLE10=Jeanne Pruett - Standing On The Promises
TTITLE11=Waylon Jennings - Crying
TTITLE12=Janie Fricke - Down To My Last Broken Heart
TTITLE13=Dolly Parton - Makin' Believe
TTITLE14=Lacy J. Dalton - Dream Baby
TTITLE15=Holly Dunn - There Goes My Heart Again
TTITLE16=Don Gibson - Blue Blue Day
TTITLE17=T Graham Brown - Darlene
TTITLE18=Mickey Gilley - Suzie Q
TTITLE19=Porter Wagoner - Green Green Grass Of Home
EXTD=
EXTT0=
EXTT1=
EXTT2=
EXTT3=
EXTT4=
EXTT5=
EXTT6=
EXTT7=
EXTT8=
EXTT9=
EXTT10=
EXTT11=
EXTT12=
EXTT13=
EXTT14=
EXTT15=
EXTT16=
EXTT17=
EXTT18=
EXTT19=
PLAYORDER=
